<svg width="50" height="50" viewBox="0 0 50 50" fill="none" xmlns="http://www.w3.org/2000/svg">
<path d="M48.618 8.11965L31.7376 25L48.618 41.8803C49.0561 42.3182 49.4037 42.8381 49.6408 43.4104C49.8779 43.9826 50 44.596 50 45.2154C50 45.8349 49.8779 46.4482 49.6408 47.0205C49.4037 47.5927 49.0561 48.1126 48.618 48.5505L48.5505 48.618C48.1126 49.0561 47.5927 49.4037 47.0205 49.6408C46.4482 49.8779 45.8349 50 45.2154 50C44.596 50 43.9826 49.8779 43.4104 49.6408C42.8381 49.4037 42.3182 49.0561 41.8803 48.618L25 31.7376L8.11965 48.618C7.68178 49.0561 7.16186 49.4037 6.58962 49.6408C6.01737 49.8779 5.40401 50 4.78458 50C4.16515 50 3.55179 49.8779 2.97954 49.6408C2.4073 49.4037 1.88739 49.0561 1.44951 48.618L1.38201 48.5505C0.943878 48.1126 0.596315 47.5927 0.359184 47.0205C0.122053 46.4482 0 45.8349 0 45.2154C0 44.596 0.122053 43.9826 0.359184 43.4104C0.596315 42.8381 0.943878 42.3182 1.38201 41.8803L18.2624 25L1.38201 8.11965C0.943878 7.68178 0.596315 7.16186 0.359184 6.58962C0.122053 6.01737 0 5.40401 0 4.78458C0 4.16515 0.122053 3.55179 0.359184 2.97954C0.596315 2.4073 0.943878 1.88739 1.38201 1.44951L1.44951 1.38201C1.88739 0.943878 2.4073 0.596315 2.97954 0.359184C3.55179 0.122053 4.16515 0 4.78458 0C5.40401 0 6.01737 0.122053 6.58962 0.359184C7.16186 0.596315 7.68178 0.943878 8.11965 1.38201L25 18.2624L41.8803 1.38201C42.3182 0.943878 42.8381 0.596315 43.4104 0.359184C43.9826 0.122053 44.596 0 45.2154 0C45.8349 0 46.4482 0.122053 47.0205 0.359184C47.5927 0.596315 48.1126 0.943878 48.5505 1.38201L48.618 1.44951C49.0561 1.88739 49.4037 2.4073 49.6408 2.97954C49.8779 3.55179 50 4.16515 50 4.78458C50 5.40401 49.8779 6.01737 49.6408 6.58962C49.4037 7.16186 49.0561 7.68178 48.618 8.11965Z" fill="#EB445A"/>
</svg>
